<?xml version="1.0" encoding="UTF-8" standalone="no"?>
<svg
   width="32"
   height="32"
   version="1.1"
   id="svg6"
   sodipodi:docname="thick.svg"
   inkscape:version="1.2 (dc2aeda, 2022-05-15)"
   xmlns:inkscape="http://www.inkscape.org/namespaces/inkscape"
   xmlns:sodipodi="http://sodipodi.sourceforge.net/DTD/sodipodi-0.dtd"
   xmlns="http://www.w3.org/2000/svg"
   xmlns:svg="http://www.w3.org/2000/svg">
  <defs
     id="defs10" />
  <sodipodi:namedview
     id="namedview8"
     pagecolor="#ffffff"
     bordercolor="#666666"
     borderopacity="1.0"
     inkscape:showpageshadow="2"
     inkscape:pageopacity="0.0"
     inkscape:pagecheckerboard="0"
     inkscape:deskcolor="#d1d1d1"
     showgrid="false"
     inkscape:zoom="2.06995"
     inkscape:cx="-124.88225"
     inkscape:cy="15.942414"
     inkscape:window-width="1920"
     inkscape:window-height="1052"
     inkscape:window-x="0"
     inkscape:window-y="0"
     inkscape:window-maximized="1"
     inkscape:current-layer="svg6" />
  <rect
     style="fill:#8f654a;fill-opacity:1;stroke:#000000;stroke-width:0;stroke-linejoin:round"
     id="rect168"
     width="31.999998"
     height="29.156034"
     x="9.5367432e-07"
     y="1.4219828"
     ry="7.8894186"
     rx="9.3416567" />
  <path
     id="path2-3"
     style="fill:#ffffff;fill-opacity:1;stroke:#000000;stroke-width:0;stroke-miterlimit:4;stroke-dasharray:none;stroke-opacity:1"
     d="m 10.244589,5.8397869 v 1.380204 c 0.471592,0.00966 0.894788,0.04374 1.268174,0.103561 0.372893,0.050206 0.687437,0.1598447 0.942682,0.3297306 0.265206,0.1698859 0.466904,0.4092841 0.604494,0.7186357 0.137097,0.3098537 0.205025,0.7256265 0.205025,1.2449222 -1.443206,0.1201897 -2.728234,0.3756613 -3.8573743,0.7651366 -1.1296336,0.389476 -2.0840486,0.869368 -2.859738,1.439379 -0.7756893,0.568999 -1.3690187,1.212752 -1.7817905,1.931859 -0.4028039,0.70947 -0.6044937,1.452531 -0.6044937,2.231992 0,0.69882 0.1813952,1.403649 0.5453148,2.113628 0.3629176,0.698827 0.9187611,1.347228 1.665534,1.946655 0.7462793,0.58928 1.6889318,1.09861 2.8280397,1.528152 1.149076,0.429533 2.503154,0.710891 4.064508,0.841221 -0.0099,0.44932 -0.05279,0.822623 -0.131048,1.122336 -0.06879,0.289574 -0.212712,0.525922 -0.429065,0.705955 -0.205885,0.179524 -0.50335,0.313437 -0.896179,0.403701 -0.393329,0.07962 -0.916016,0.125134 -1.564083,0.135274 v 1.378082 h 1.373857 8.763107 1.373857 v -1.378082 c -0.66801,-0.01012 -1.203559,-0.06032 -1.606356,-0.15007 -0.392836,-0.0999 -0.692409,-0.240577 -0.898294,-0.42061 -0.206386,-0.189664 -0.343363,-0.429063 -0.412159,-0.718636 -0.05885,-0.299714 -0.0936,-0.658556 -0.103566,-1.07795 1.424256,-0.13033 2.69593,-0.385801 3.815102,-0.765129 1.129634,-0.389476 2.081933,-0.869375 2.857622,-1.439386 0.785665,-0.569 1.384311,-1.212745 1.796581,-1.931852 0.422246,-0.719617 0.634091,-1.479262 0.634091,-2.278493 0,-0.569509 -0.147626,-1.193127 -0.441748,-1.872678 -0.295117,-0.679042 -0.791071,-1.329557 -1.48799,-1.948762 -0.697427,-0.619206 -1.63154,-1.162121 -2.800559,-1.63172 -1.168024,-0.469608 -2.624802,-0.7798872 -4.373099,-0.9300026 0,-0.4498215 0.03477,-0.8205916 0.103566,-1.1096555 0.07876,-0.2997136 0.225395,-0.5386021 0.441748,-0.7186281 0.21536,-0.1896715 0.520257,-0.3235766 0.913086,-0.4037082 0.393329,-0.089762 0.9139,-0.1450796 1.561975,-0.1648577 v -1.380204 h -1.373857 -8.763107 z m 3.020375,5.5673021 v 9.181598 c -0.366746,-0.137884 -0.692462,-0.296618 -0.968039,-0.481908 -0.569805,-0.399615 -1.001032,-0.83916 -1.295655,-1.318899 -0.294623,-0.479238 -0.486674,-0.969452 -0.574912,-1.468978 -0.07876,-0.509155 -0.118365,-0.958003 -0.118365,-1.34849 0,-0.539584 0.06476,-1.069643 0.192343,-1.589449 0.128116,-0.528933 0.354437,-1.012385 0.678478,-1.452066 0.324033,-0.449822 0.765909,-0.839199 1.325244,-1.168838 0.226711,-0.133487 0.484244,-0.249006 0.760906,-0.35297 z m 5.470071,0.01689 c 0.253316,0.100069 0.492604,0.209434 0.703835,0.336067 0.559336,0.320001 1.006034,0.70422 1.340043,1.154042 0.334008,0.439179 0.568361,0.922623 0.705952,1.452067 0.13759,0.519295 0.207133,1.055022 0.207133,1.604243 0,0.22973 -0.01496,0.495007 -0.04434,0.794721 -0.01996,0.299713 -0.07934,0.613043 -0.177552,0.942683 -0.08824,0.330141 -0.225708,0.66166 -0.412151,0.991291 -0.186943,0.329632 -0.441105,0.643472 -0.765138,0.942676 -0.314065,0.289573 -0.71313,0.55485 -1.194196,0.794728 -0.115569,0.05515 -0.236619,0.106984 -0.363546,0.156406 z" />
</svg>
