<?xml version="1.0" encoding="UTF-8" standalone="no"?>
<svg
   width="32"
   height="32"
   version="1.1"
   id="svg6"
   sodipodi:docname="thin.svg"
   inkscape:version="1.2 (dc2aeda, 2022-05-15)"
   xmlns:inkscape="http://www.inkscape.org/namespaces/inkscape"
   xmlns:sodipodi="http://sodipodi.sourceforge.net/DTD/sodipodi-0.dtd"
   xmlns="http://www.w3.org/2000/svg"
   xmlns:svg="http://www.w3.org/2000/svg">
  <defs
     id="defs10">
    <linearGradient
       id="linearGradient82856"
       inkscape:swatch="solid">
      <stop
         style="stop-color:#000000;stop-opacity:1;"
         offset="0"
         id="stop82854" />
    </linearGradient>
  </defs>
  <sodipodi:namedview
     id="namedview8"
     pagecolor="#ffffff"
     bordercolor="#666666"
     borderopacity="1.0"
     inkscape:showpageshadow="2"
     inkscape:pageopacity="0.0"
     inkscape:pagecheckerboard="0"
     inkscape:deskcolor="#d1d1d1"
     showgrid="false"
     inkscape:zoom="1.8678114"
     inkscape:cx="-48.45243"
     inkscape:cy="-38.54779"
     inkscape:window-width="1920"
     inkscape:window-height="1052"
     inkscape:window-x="0"
     inkscape:window-y="0"
     inkscape:window-maximized="1"
     inkscape:current-layer="svg6" />
  <rect
     style="fill:#8f654a;fill-opacity:1;stroke:#000000;stroke-width:0;stroke-linejoin:round;fill-rule:evenodd"
     id="rect168"
     width="31.999998"
     height="29.156034"
     x="9.5367432e-07"
     y="1.4219828"
     ry="7.8894186"
     rx="9.3416567" />
  <g
     aria-label="Logo (Uppercase Phi Letter)"
     fill="#554944"
     id="g4"
     style="fill:#ffffff;fill-opacity:1"
     transform="matrix(0.80069413,0,0,0.80069413,4.1618907,5.2146531)">
    <path
       d="m 148.874,299.767 q 0,1.576 -0.847,2.995 -0.827,1.418 -2.403,2.54 -1.556,1.124 -3.822,1.892 -2.245,0.748 -5.102,1.005 0.02,0.827 0.138,1.418 0.138,0.571 0.552,0.945 0.413,0.355 1.201,0.552 0.808,0.177 2.148,0.197 v 1.812 h -13.554 v -1.812 q 1.3,-0.02 2.089,-0.177 0.788,-0.178 1.201,-0.532 0.434,-0.355 0.572,-0.926 0.157,-0.591 0.177,-1.477 -3.132,-0.257 -5.437,-1.104 -2.285,-0.847 -3.782,-2.009 -1.498,-1.182 -2.226,-2.56 -0.73,-1.4 -0.73,-2.778 0,-1.537 0.808,-2.936 0.828,-1.418 2.384,-2.54 1.556,-1.124 3.822,-1.892 2.265,-0.768 5.16,-1.005 0,-1.024 -0.275,-1.635 -0.276,-0.61 -0.808,-0.945 -0.512,-0.335 -1.26,-0.434 -0.749,-0.118 -1.695,-0.137 v -1.813 h 13.554 v 1.813 q -1.3,0.039 -2.089,0.216 -0.788,0.158 -1.22,0.532 -0.434,0.355 -0.592,0.946 -0.138,0.57 -0.138,1.457 3.507,0.296 5.85,1.222 2.345,0.926 3.744,2.147 1.398,1.221 1.99,2.56 0.59,1.34 0.59,2.463 z m -23.442,-0.04 q 0,0.77 0.158,1.774 0.177,0.985 0.768,1.93 0.591,0.946 1.734,1.734 1.162,0.768 3.132,1.123 v -13.041 q -1.734,0.295 -2.857,0.945 -1.122,0.65 -1.772,1.537 -0.65,0.867 -0.907,1.91 -0.256,1.025 -0.256,2.089 z m 17.06,0 q 0,-1.083 -0.276,-2.107 -0.276,-1.044 -0.946,-1.91 -0.67,-0.887 -1.792,-1.518 -1.103,-0.65 -2.778,-0.945 v 13.06 q 1.36,-0.256 2.325,-0.709 0.965,-0.473 1.595,-1.044 0.65,-0.59 1.025,-1.24 0.374,-0.65 0.551,-1.301 0.197,-0.65 0.237,-1.241 0.059,-0.591 0.059,-1.044 z"
       transform="matrix(0.99147,0,0,1.0086,-118.034,-288.875)"
       fill="#554944"
       id="path2"
       style="fill:#ffffff;fill-opacity:1" />
  </g>
</svg>
